<svg width="69" height="42" viewBox="0 0 79 62" fill="none" xmlns="http://www.w3.org/2000/svg">
<path d="M0 11.0039V53.3594C0 55.8203 1.38086 58.1445 3.69141 59.0058C15.5859 63.4492 27.4805 60.4141 39.375 57.3789C50.2852 54.6035 61.1953 51.8144 72.0918 54.7949C75.2363 55.6562 78.75 53.4961 78.75 50.2285V7.88671C78.75 5.42577 77.3691 3.10155 75.0586 2.24022C63.1641 -2.20314 51.2695 0.832019 39.375 3.86718C28.4648 6.64257 17.5547 9.41796 6.6582 6.43749C3.5 5.57616 0 7.73632 0 11.0039ZM39.375 43.748C33.332 43.748 28.4375 37.8691 28.4375 30.623C28.4375 23.3769 33.332 17.498 39.375 17.498C45.418 17.498 50.3125 23.3769 50.3125 30.623C50.3125 37.8691 45.418 43.748 39.375 43.748ZM8.75 43.748C13.5762 43.748 17.5 47.6719 17.5 52.498H8.75V43.748ZM17.5 15.3105C17.5 20.1367 13.5762 24.0605 8.75 24.0605V15.3105H17.5ZM70 37.1855V45.9355H61.25C61.25 41.1094 65.1738 37.1855 70 37.1855ZM61.25 8.74803H70V17.498C65.1738 17.498 61.25 13.5742 61.25 8.74803Z" fill="#FF9A62"/>
</svg>
