<svg width="50" height="36" viewBox="0 0 65 46" fill="none" xmlns="http://www.w3.org/2000/svg">
<path d="M35 27.9999V48.9999M35 27.9999L27.7084 32.6666M35 27.9999L42.2917 32.6666M14.6825 21.2729C11.924 21.8283 9.51384 23.1703 7.90494 25.047C6.29603 26.9236 5.5991 29.2057 5.94509 31.4645C6.29108 33.7232 7.65617 35.8031 9.78389 37.3135C11.9116 38.8238 14.6555 39.6606 17.5 39.6666H20.4167" stroke="#FF9A62" stroke-width="4" stroke-linecap="round" stroke-linejoin="round"/>
<path d="M46.1708 16.6553C45.1739 13.4973 42.7133 10.7607 39.2878 9.00024C35.8623 7.23978 31.7282 6.58718 27.7236 7.17475C23.719 7.76231 20.1434 9.54607 17.7218 12.1644C15.3001 14.7828 14.2136 18.0398 14.6824 21.2753C14.6824 21.2753 15.1287 23.3333 16.0416 24.5" stroke="#FF9A62" stroke-width="4" stroke-linecap="round" stroke-linejoin="round"/>
<path d="M49.5832 39.6666C51.6425 39.6655 53.6781 39.3155 55.5561 38.6397C57.4341 37.9638 59.1119 36.9774 60.479 35.7454C61.8462 34.5134 62.8717 33.0638 63.488 31.4919C64.1044 29.92 64.2976 28.2615 64.055 26.6255C63.8124 24.9896 63.1395 23.4133 62.0805 22.0004C61.0215 20.5875 59.6005 19.37 57.9109 18.4281C56.2214 17.4863 54.3017 16.8413 52.2782 16.5358C50.2546 16.2302 48.1731 16.2709 46.1707 16.6553L42.2915 17.5" stroke="#FF9A62" stroke-width="4" stroke-linecap="round" stroke-linejoin="round"/>
</svg>
