<svg width="54" height="47" viewBox="0 0 54 47" fill="none" xmlns="http://www.w3.org/2000/svg">
<g clip-path="url(#clip0_31_56)">
<path d="M38.25 11.0156C38.25 16.0277 31.3969 24.9596 28.3875 28.6406C27.6656 29.5219 26.325 29.5219 25.6125 28.6406C22.6031 24.9596 15.75 16.0277 15.75 11.0156C15.75 4.92949 20.7844 0 27 0C33.2156 0 38.25 4.92949 38.25 11.0156ZM39 18.3961C39.3281 17.7627 39.6281 17.1293 39.9 16.5051C39.9469 16.3949 39.9938 16.2756 40.0406 16.1654L50.9156 11.9061C52.3969 11.3277 54 12.3926 54 13.9531V38.8117C54 39.7113 53.4375 40.5191 52.5844 40.8588L39 46.1738V18.3961ZM12.9 12.6955C13.125 13.9898 13.575 15.2934 14.1 16.5051C14.3719 17.1293 14.6719 17.7627 15 18.3961V41.4738L3.08438 46.1463C1.60313 46.7246 0 45.6598 0 44.0992V19.2406C0 18.341 0.5625 17.5332 1.41563 17.1936L12.9094 12.6955H12.9ZM30.7312 30.4766C32.0344 28.8793 34.0781 26.2814 36 23.4082V46.2932L18 41.2535V23.4082C19.9219 26.2814 21.9656 28.8793 23.2687 30.4766C25.1906 32.8266 28.8094 32.8266 30.7312 30.4766ZM27 13.9531C29.0719 13.9531 30.75 12.31 30.75 10.2813C30.75 8.25254 29.0719 6.60938 27 6.60938C24.9281 6.60938 23.25 8.25254 23.25 10.2813C23.25 12.31 24.9281 13.9531 27 13.9531Z" fill="black"/>
</g>
<defs>
<clipPath id="clip0_31_56">
<rect width="54" height="47" fill="white"/>
</clipPath>
</defs>
</svg>
