<svg width="428" height="679" viewBox="0 0 428 679" fill="none" xmlns="http://www.w3.org/2000/svg">
<path fill-rule="evenodd" clip-rule="evenodd" d="M214.055 62.4178C206.286 53.1608 201.028 41.8163 201.907 29.1044C204.438 -7.52204 254.661 0.535313 264.43 19.0212C274.199 37.5071 273.038 84.3981 260.412 87.7021C255.377 89.0197 244.651 85.7921 233.734 79.1119L240.586 128.327H200.125L214.055 62.4178Z" fill="#57331F"/>
<path fill-rule="evenodd" clip-rule="evenodd" d="M235.757 33.1497C237.306 55.0518 241.403 66.0029 248.048 66.0029C258.016 66.0029 266.473 59.5786 270.847 59.5786C274.035 59.5786 273.323 63.6291 271.21 66.6323C269.466 69.1101 260.975 71.4983 260.975 75.3396C260.975 79.1809 267.684 76.2091 267.684 78.4873C267.684 82.2558 268.863 89.3411 262.42 89.3411C255.9 89.3411 237.206 86.9289 234.002 77.1049C231.935 70.7647 230.598 57.6266 229.992 37.6908C229.596 37.643 229.194 37.6185 228.785 37.6185C223.199 37.6185 218.67 42.216 218.67 47.8874C218.67 50.7665 219.837 53.3688 221.718 55.2334C219.377 58.5872 216.754 62.0908 213.748 65.7059C202.456 58.8283 194.077 38.695 205.117 19.3541C208.168 9.87926 215.076 4.81841 223.234 2.4685C229.843 -0.337967 236.704 -0.654399 242.495 1.02805C253.847 2.01659 263.985 5.53085 266.857 7.61789C266.857 18.529 264.775 21.7662 246.987 21.4809C242.617 23.8242 239.257 27.8594 235.757 33.1497Z" fill="#2F2A2A"/>
<path fill-rule="evenodd" clip-rule="evenodd" d="M196.88 269.956L279.625 482.568L335.122 662.313H357.037L272.194 269.956L196.88 269.956Z" fill="#3D2216"/>
<path fill-rule="evenodd" clip-rule="evenodd" d="M180.218 269.956C179.336 344.67 166.487 445.259 164.434 449.916C163.065 453.021 115.817 492.504 22.6895 568.366L37.7833 584.764C147.665 519.722 205.148 482.863 210.233 474.188C217.86 461.176 242.692 341.433 262.628 269.956H180.218Z" fill="#57331F"/>
<path fill-rule="evenodd" clip-rule="evenodd" d="M20.6709 562.892C15.6017 564.711 12.1097 566.436 10.1949 568.067C7.86606 570.051 4.79324 573.34 0.976449 577.933C3.24338 580.676 23.6167 605.325 62.0963 651.88C69.9423 648.471 72.4037 644.484 69.4807 639.919C66.5577 635.354 64.1655 631.531 62.3042 628.45L48.9891 581.223C48.7329 580.314 47.7995 579.788 46.9044 580.049C46.8891 580.053 46.8738 580.058 46.8586 580.063L39.7537 582.35C34.8244 580.018 31.3694 577.654 29.3888 575.258C27.7796 573.311 26.3319 569.962 25.0455 565.212L25.0455 565.212C24.5519 563.389 22.6961 562.318 20.9006 562.819C20.8232 562.841 20.7466 562.865 20.6709 562.892Z" fill="#E4E4E4"/>
<path fill-rule="evenodd" clip-rule="evenodd" d="M326.149 654.016C324.263 659.127 323.32 662.952 323.32 665.489C323.32 668.575 323.826 673.079 324.839 679C328.366 679 360.061 679 419.925 679C422.396 670.707 420.969 666.23 415.646 665.569C410.322 664.908 405.9 664.31 402.378 663.778L358.183 643.776C357.333 643.391 356.336 643.779 355.957 644.642C355.951 644.657 355.944 644.672 355.938 644.687L353.098 651.683C348.169 654.017 344.164 655.184 341.083 655.184C338.58 655.184 335.123 654.158 330.711 652.105L330.711 652.105C329.019 651.317 327.017 652.072 326.241 653.79C326.208 653.864 326.177 653.939 326.149 654.016Z" fill="#E4E4E4"/>
<path fill-rule="evenodd" clip-rule="evenodd" d="M252.514 643.8L356.707 632.32L279.487 269.956H186.165L252.514 643.8Z" fill="#2F2A2A"/>
<path fill-rule="evenodd" clip-rule="evenodd" d="M44.2422 541.911L112.587 624.037C184.573 544.221 226.541 492.141 238.491 467.796C250.441 443.452 261.184 377.506 270.719 269.956H165.655C160.446 364.574 156.935 414.084 155.122 418.487C153.309 422.89 116.349 464.031 44.2422 541.911Z" fill="#F27400"/>
<path fill-rule="evenodd" clip-rule="evenodd" d="M344.348 248.733L392.105 296.029C406 302.047 417.386 308.691 426.261 315.962C428.257 318.406 430.43 323.089 421.039 320.994C411.648 318.898 401.678 317.123 399.913 320.223C398.148 323.323 403.349 328.074 400.087 332.132C397.912 334.837 390.599 326.232 378.147 306.319L328.486 276.595L344.348 248.733ZM110.817 205.927L147.733 206.068C119.616 298.546 104.691 346.966 102.958 351.328C99.0566 361.142 107.312 376.09 110.842 384.122C99.3441 389.345 100.569 370.002 86.0652 376.852C72.8267 383.105 62.7561 394.435 47.4609 384.853C45.5804 383.676 43.5197 379.24 48.4986 375.775C60.9028 367.14 78.7779 352.028 81.1931 347.054C84.4867 340.27 94.3612 293.228 110.817 205.927Z" fill="#57331F"/>
<path fill-rule="evenodd" clip-rule="evenodd" d="M223.306 99.6144L237.884 97.076C260.848 179.487 378.839 235.661 386.083 266.469C388.739 277.767 380.73 283.478 384.867 286.919L365.919 301.001C362.71 297.2 355.862 304.152 341.563 299.289C327.263 294.426 223.306 197.196 223.306 99.6144Z" fill="#2F2A2A"/>
<path fill-rule="evenodd" clip-rule="evenodd" d="M247.829 110.571C246.148 219.676 308.276 247.508 294.437 291.276C283.009 327.42 173.628 366.274 154.701 330.845C147.039 316.504 143.563 299.159 143.168 280.301C138.331 294.789 134.505 307.261 131.691 317.717C126.835 335.757 108.013 338.624 108.013 345.573L83.2144 338.624C84.8965 329.183 73.2059 324.586 76.3404 303.494C90.385 208.991 128.12 140.488 189.546 97.9864L190.182 88.7605C190.442 84.9888 193.664 82.1451 197.379 82.4088L242.787 85.6322C246.502 85.896 249.303 89.1674 249.043 92.939L247.829 110.571Z" fill="#F27400"/>
</svg>
