<svg width="400" height="400" viewBox="0 0 558 400" fill="none" xmlns="http://www.w3.org/2000/svg">
<path fill-rule="evenodd" clip-rule="evenodd" d="M413.144 254.513L497.288 316.791C520.11 322.998 539.177 330.72 554.488 339.958C558.105 343.28 562.477 350.008 547.477 348.845C532.476 347.682 516.646 347.139 514.576 352.296C512.507 357.453 521.584 363.62 517.4 370.578C514.611 375.217 501.434 363.586 477.868 335.684L394.543 300.858L413.144 254.513ZM90.0715 256.662L145.197 256.88C111.159 367.629 92.7844 426.392 90.0715 433.168C83.9676 448.415 96.8843 471.636 102.408 484.115C84.4175 492.229 86.3344 462.179 63.6397 472.821C42.9251 482.535 27.1675 500.135 3.23479 485.251C0.292403 483.421 -2.93198 476.531 4.85854 471.146C24.2675 457.733 52.2371 434.256 56.0162 426.528C61.1698 415.99 72.5215 359.368 90.0715 256.662Z" fill="#B28B67"/>
<path fill-rule="evenodd" clip-rule="evenodd" d="M246.729 23.5179L269.539 19.5744C354.172 93.2641 388.933 234.831 492.672 309.824L467.703 341.02C287.735 318.56 243.129 145.883 246.729 23.5179Z" fill="#E87613"/>
<path fill-rule="evenodd" clip-rule="evenodd" d="M147.293 312.444C238.754 312.444 306.031 312.444 349.123 312.444C358.345 312.444 356.608 299.021 355.274 292.248C339.888 214.078 279.825 129.815 279.825 18.5424L221.608 9.341C173.455 87.399 156.803 183.504 147.293 312.444Z" fill="#DDE3E9"/>
<path fill-rule="evenodd" clip-rule="evenodd" d="M148.916 86.0685C140.46 83.6187 133.765 77.9052 128.829 68.9278C107.55 30.2287 115.235 8.92202 137.975 1.91838C160.715 -5.08525 180.994 9.34103 217.225 9.34103C219.195 9.34103 221 9.46555 222.639 9.71458L240.864 10.7628C293.154 189.382 307.575 308.554 284.128 368.279H125.272C115.86 390.399 106.854 409.011 98.2527 424.113H54.9674C50.8937 291.352 82.2098 178.67 148.916 86.0685Z" fill="#FF9B21"/>
<path fill-rule="evenodd" clip-rule="evenodd" d="M159.863 276.544C164.859 318.676 172.979 349.254 184.224 368.278H125.271C136.25 342.475 147.781 311.897 159.863 276.544Z" fill="black" fill-opacity="0.1"/>
</svg>
