<svg width="75" height="71" viewBox="0 0 121 125" fill="none" xmlns="http://www.w3.org/2000/svg">
<path d="M3.90588 22.6875L4.21838 29.2669C2.15717 32.1674 1.21172 35.6757 1.5465 39.1813L6.52306 92.1188C6.87585 95.8767 8.66701 99.3713 11.5449 101.916C14.4228 104.462 18.1796 105.874 22.0778 105.875H70.3121V98.3125H22.0778C20.1287 98.3107 18.2508 97.6038 16.8126 96.3306C15.3743 95.0573 14.4797 93.3096 14.3043 91.4306L9.32775 38.4931C9.23008 37.4469 9.35867 36.3924 9.70533 35.3969C10.052 34.4014 10.6091 33.4867 11.3412 32.7112C12.0733 31.9356 12.9642 31.3162 13.9573 30.8925C14.9504 30.4688 16.0237 30.2499 17.109 30.25H107.89C108.976 30.2499 110.049 30.4688 111.042 30.8925C112.035 31.3162 112.926 31.9356 113.658 32.7112C114.39 33.4867 114.947 34.4014 115.294 35.3969C115.641 36.3924 115.769 37.4469 115.672 38.4931L113.593 60.5H121.445L123.445 39.1813C123.641 37.0888 123.385 34.9796 122.693 32.9882C122.001 30.9968 120.887 29.1669 119.424 27.6151C117.96 26.0634 116.179 24.8238 114.193 23.9753C112.207 23.1269 110.061 22.6883 107.89 22.6875H76.7809C72.6372 22.6866 68.6636 21.0926 65.734 18.2559L59.2653 11.9941C56.3357 9.15744 52.362 7.56336 48.2184 7.5625H19.5309C15.3869 7.5625 11.4126 9.15602 8.48233 11.9925C5.55208 14.829 3.90588 18.6761 3.90588 22.6875ZM48.2184 15.125C50.2902 15.1254 52.277 15.9225 53.7418 17.3408L59.2653 22.6875H17.109C15.234 22.6875 13.4371 23.0051 11.7731 23.595L11.7184 22.5363C11.7593 20.5569 12.6004 18.672 14.0611 17.2863C15.5218 15.9006 17.4857 15.1246 19.5309 15.125H48.2184Z" fill="#FF9A62"/>
<path d="M105.469 75.625C106.505 75.625 107.498 76.0234 108.231 76.7325C108.963 77.4416 109.375 78.4034 109.375 79.4062V90.75H121.094C122.13 90.75 123.123 91.1484 123.856 91.8575C124.588 92.5666 125 93.5284 125 94.5312C125 95.5341 124.588 96.4959 123.856 97.205C123.123 97.9141 122.13 98.3125 121.094 98.3125H109.375V109.656C109.375 110.659 108.963 111.621 108.231 112.33C107.498 113.039 106.505 113.438 105.469 113.438C104.433 113.438 103.439 113.039 102.707 112.33C101.974 111.621 101.562 110.659 101.562 109.656V98.3125H89.8438C88.8077 98.3125 87.8142 97.9141 87.0816 97.205C86.349 96.4959 85.9375 95.5341 85.9375 94.5312C85.9375 93.5284 86.349 92.5666 87.0816 91.8575C87.8142 91.1484 88.8077 90.75 89.8438 90.75H101.562V79.4062C101.562 78.4034 101.974 77.4416 102.707 76.7325C103.439 76.0234 104.433 75.625 105.469 75.625Z" fill="#FF9A62"/>
</svg>
